<svg xmlns="http://www.w3.org/2000/svg" width="330" height="220" viewBox="0 0 330 220">
  <rect width="330" height="220" fill="#fbf8ee"/>
  <rect x="20" y="60" width="110" height="86" rx="4" fill="#1f5446"/>
  <rect x="28" y="70" width="82" height="58" fill="#eadfc5"/>
  <path d="M45 118c22-25 41-26 67-2" fill="none" stroke="#c2a35c" stroke-width="3"/>
  <rect x="112" y="84" width="184" height="82" rx="8" fill="#c8a66d"/>
  <rect x="124" y="96" width="160" height="54" fill="#f7e4bd"/>
  <g fill="#1f5446">
    <rect x="134" y="106" width="13" height="36" rx="4"/>
    <rect x="154" y="106" width="13" height="36" rx="4"/>
    <rect x="174" y="106" width="13" height="36" rx="4"/>
    <rect x="194" y="106" width="13" height="36" rx="4"/>
    <rect x="214" y="106" width="13" height="36" rx="4"/>
    <rect x="234" y="106" width="13" height="36" rx="4"/>
    <rect x="254" y="106" width="13" height="36" rx="4"/>
  </g>
  <text x="52" y="104" fill="#1f5446" font-size="17" font-family="serif" font-weight="700">伊尹艾</text>
</svg>
